<svg width="88" height="48" viewBox="0 0 88 48" fill="none" xmlns="http://www.w3.org/2000/svg">
<path fill-rule="evenodd" clip-rule="evenodd" d="M3.369 3.62883L0 7.23333V16.3667V25.5H5.5203H11.0406V12.75V0L8.8893 0.0121663L6.73801 0.0243327L3.369 3.62883ZM13.6384 12.75V25.5H19.2399H24.8413V12.75V0H19.2399H13.6384V12.75ZM30.8893 3.708L27.4391 7.40333V16.4517V25.5H28.9816H30.524V17.0363V8.57267L33 5.90883L35.476 3.245L35.5177 14.3725L35.5595 25.5H37.1008H38.6421V17.0363V8.57267L41.1181 5.90883L43.5941 3.245L43.6358 14.3725L43.6776 25.5H45.2188H46.7601V12.75V0H44.6352H42.51L40.5831 2.04167L38.6564 4.08333L38.6492 2.04167L38.6421 0L36.4908 0.0063324L34.3395 0.0124995L30.8893 3.708ZM58.1255 0.561834C58.1255 0.907334 58.0285 0.970335 57.3542 1.06267C55.3301 1.33967 54.3359 3.16083 54.8704 5.6125C55.1745 7.00733 56.384 8 57.779 8C58.0667 8 58.1255 8.09883 58.1255 8.58333C58.1255 9.13883 58.1526 9.16667 58.6937 9.16667C59.2307 9.16667 59.262 9.13583 59.262 8.60533C59.262 8.07617 59.2993 8.03867 59.9126 7.95433C61.9341 7.676 62.958 5.92883 62.5125 3.51767C62.2382 2.03317 61.41 1.25183 59.8884 1.04233C59.3614 0.969833 59.262 0.893499 59.262 0.561333C59.262 0.221333 59.1832 0.166667 58.6937 0.166667C58.204 0.166667 58.1255 0.221334 58.1255 0.561834ZM67.0531 0.5015C66.3361 0.627 65.6037 1.06967 65.2067 1.61717C64.8027 2.17417 64.5918 4.3295 64.767 6.10933C64.9779 8.253 65.7587 9.06383 67.6236 9.0755C69.98 9.09033 70.8381 7.5305 70.5753 3.71C70.4716 2.20067 70.1461 1.42733 69.4042 0.928335C68.8788 0.575001 67.7761 0.374834 67.0531 0.5015ZM73.0627 4.75V9H73.5498H74.0369V7.08333V5.16667H75.9041H77.7712V7.08333V9H78.3395H78.9077V4.75V0.5H78.3395H77.7712V2.41667V4.33333H75.9041H74.0369V2.41667V0.5H73.5498H73.0627V4.75ZM82.4797 2.74183C82.4797 5.13983 82.3066 6.32733 81.7921 7.45833C81.5448 8.00183 81.3794 8.16667 81.0818 8.16667C80.7014 8.16667 80.6937 8.19617 80.6937 9.66667V11.1667H81.262H81.8303V10.0833V9H84.428H87.0258V10.0833V11.1667H87.5129H88V9.66667C88 8.17783 87.9969 8.16667 87.5941 8.16667H87.1882V4.33333V0.5H84.8339H82.4797V2.74183ZM68.9225 2.0185C69.4047 2.50067 69.4101 2.52617 69.463 4.56883C69.5232 6.88917 69.3601 7.46883 68.522 7.91383C67.9155 8.23567 67.4845 8.23317 66.8082 7.90383C65.9195 7.47083 65.7138 6.78933 65.7805 4.49817C65.8294 2.82167 65.885 2.48033 66.1624 2.16133C66.9626 1.24083 68.0863 1.18267 68.9225 2.0185ZM86.0517 4.83333V8.16667H84.3426H82.6338L82.8617 7.70833C83.2621 6.90317 83.4539 5.538 83.4539 3.49183V1.5H84.7528H86.0517V4.83333ZM58.1255 4.5V7L57.679 6.99883C57.1398 6.9975 56.357 6.49567 56.0721 5.96833C55.781 5.43 55.797 3.59333 56.0981 2.996C56.3836 2.42883 57.0432 2.01617 57.679 2.00667L58.1255 2V4.5ZM60.5471 2.24267C61.2457 2.6135 61.5828 3.50633 61.504 4.7765C61.4472 5.69233 61.369 5.91417 60.9507 6.34333C60.6609 6.64083 60.2203 6.884 59.8627 6.9435L59.262 7.04367V4.52183V2H59.676C59.9036 2 60.2956 2.10917 60.5471 2.24267ZM21.7565 12.6667V22.5H19.2399H16.7232V12.6667V2.83333H19.2399H21.7565V12.6667ZM7.95572 12.9167V22.5H5.43911H2.92251V15.5407V8.58117L5.37125 5.95733C6.7182 4.51417 7.85067 3.33333 7.88785 3.33333C7.9252 3.33333 7.95572 7.64583 7.95572 12.9167ZM0 29.6667V31.1667H23.3801H46.7601V29.6667V28.1667H23.3801H0V29.6667ZM0 40.8333V48H1.46125H2.92251V46.4167V44.8333H11.1218H19.321V39.25V33.6667H9.66052H0V40.8333ZM21.9188 39.25V44.8333H27.3579H32.797V46.4167V48H34.3395H35.8819V46.4167V44.8333H41.321H46.7601V39.25V33.6667H34.3395H21.9188V39.25ZM16.2362 39.3333V42H9.57934H2.92251V39.3333V36.6667H9.57934H16.2362V39.3333ZM32.797 39.3333V42H28.9004H25.0037V39.3333V36.6667H28.9004H32.797V39.3333ZM43.8376 39.3333V42H39.8598H35.8819V39.3333V36.6667H39.8598H43.8376V39.3333Z" fill="#4C565C"/>
</svg>
