<svg width="19" height="13" viewBox="0 0 19 13" fill="none" xmlns="http://www.w3.org/2000/svg">
    <path d="M15.8107 7.34349C16.0004 6.98288 16.672 5.94912 17.1778 5.17982C18.695 2.90396 18.9716 2.42314 18.9716 2.13466C18.9716 1.91337 18.7947 1.73398 18.5765 1.73398H15.0205C14.8303 1.73468 14.6675 1.87277 14.6333 2.06253C14.4357 3.16841 11.8755 6.34179 11.4724 6.54213C11.3065 6.54213 11.0773 6.12542 11.0773 5.34009V1.95836C11.1212 1.6939 11.0523 1.423 10.8877 1.21309C10.619 0.932617 10.216 0.932617 9.09391 0.932617C7.05516 0.932617 6.32816 1.54966 6.32816 2.13466C6.31938 2.23647 6.35268 2.3374 6.42009 2.41337C6.48751 2.48933 6.583 2.5335 6.68376 2.53533C6.68376 2.53533 7.11838 2.82382 7.11838 4.53873C7.14072 5.20828 7.10635 5.87854 7.01565 6.54213C6.01208 6.35782 4.62131 3.81751 3.95753 1.99041C3.89553 1.82632 3.73532 1.72234 3.56242 1.73398H0.401573C0.283211 1.73201 0.170218 1.78397 0.0936848 1.87555C0.0171515 1.96714 -0.0148572 2.08869 0.0064665 2.20678C0.448985 4.62688 5.46683 12.1516 8.6988 12.1516H10.2792C11.1168 12.1516 11.1801 11.2301 11.2275 10.621C11.2749 10.012 11.3144 9.74756 11.4645 9.74756C11.9545 9.74756 12.958 10.6291 13.6139 11.206C14.2698 11.783 14.6965 12.1516 15.0205 12.1516H16.996C18.0154 12.1516 18.9716 12.1516 18.9716 11.3503C18.9716 11.0458 18.7108 10.6932 17.2094 8.94621C16.7116 8.39327 16.0399 7.63198 15.8107 7.34349Z" fill="#1E1B1B"/>
</svg>
