<svg width="20" height="17" viewBox="0 0 20 17" fill="none" xmlns="http://www.w3.org/2000/svg">
    <path fill-rule="evenodd" clip-rule="evenodd" d="M1.3749 7.802C6.74359 5.5525 10.3236 4.06949 12.1148 3.35298C17.2292 1.30718 18.2919 0.951801 18.9846 0.940067C19.1369 0.937486 19.4776 0.973796 19.6982 1.14598C19.8845 1.29137 19.9358 1.48777 19.9603 1.62562C19.9848 1.76347 20.0154 2.07748 19.9911 2.32285C19.714 5.12339 18.5147 11.9196 17.9046 15.0562C17.6465 16.3834 17.1382 16.8285 16.6461 16.872C15.5766 16.9667 14.7645 16.1923 13.7287 15.5393C12.1078 14.5175 11.1921 13.8814 9.61879 12.8843C7.80053 11.732 8.97923 11.0986 10.0154 10.0636C10.2866 9.7927 14.9987 5.6708 15.0899 5.29688C15.1013 5.25011 15.1119 5.0758 15.0042 4.98375C14.8965 4.8917 14.7376 4.92318 14.6229 4.94821C14.4604 4.9837 11.871 6.62964 6.85486 9.88603C6.11988 10.3714 5.45416 10.6079 4.8577 10.5955C4.20015 10.5818 2.93528 10.2379 1.99498 9.94398C0.84166 9.58344 -0.074973 9.39282 0.00484519 8.78051C0.0464194 8.46157 0.503103 8.1354 1.3749 7.802Z" fill="#1E1B1B"/>
</svg>
