<svg width="20" height="17" viewBox="0 0 20 17" fill="none" xmlns="http://www.w3.org/2000/svg">
    <path d="M19.543 3.42857C20 5.20388 20 8.90993 20 8.90993C20 8.90993 20 12.616 19.543 14.3913C19.289 15.3726 18.546 16.1447 17.605 16.4057C15.896 16.8799 10 16.8799 10 16.8799C10 16.8799 4.107 16.8799 2.395 16.4057C1.45 16.1407 0.708 15.3696 0.457 14.3913C2.98023e-08 12.616 0 8.90993 0 8.90993C0 8.90993 2.98023e-08 5.20388 0.457 3.42857C0.711 2.44727 1.454 1.67517 2.395 1.41416C4.107 0.939941 10 0.939941 10 0.939941C10 0.939941 15.896 0.939941 17.605 1.41416C18.55 1.67916 19.292 2.45025 19.543 3.42857V3.42857ZM8 12.3968L14 8.90993L8 5.42306V12.3968Z" fill="#1E1B1B"/>
</svg>
